<?xml version="1.0" encoding="UTF-8" standalone="no"?>
<svg
   xmlns:dc="http://purl.org/dc/elements/1.1/"
   xmlns:cc="http://creativecommons.org/ns#"
   xmlns:rdf="http://www.w3.org/1999/02/22-rdf-syntax-ns#"
   xmlns:svg="http://www.w3.org/2000/svg"
   xmlns="http://www.w3.org/2000/svg"
   xmlns:xlink="http://www.w3.org/1999/xlink"
   xmlns:sodipodi="http://sodipodi.sourceforge.net/DTD/sodipodi-0.dtd"
   xmlns:inkscape="http://www.inkscape.org/namespaces/inkscape"
   id="02a143c3-6017-4373-a226-06a05c845178"
   data-name="Layer 1"
   width="1120"
   height="862"
   viewBox="0 0 1120 862.00002"
   version="1.1"
   sodipodi:docname="undraw_finance_0bdk.svg"
   inkscape:version="0.92.4 (5da689c313, 2019-01-14)">
  <metadata
     id="metadata165">
    <rdf:RDF>
      <cc:Work
         rdf:about="">
        <dc:format>image/svg+xml</dc:format>
        <dc:type
           rdf:resource="http://purl.org/dc/dcmitype/StillImage" />
        <dc:title>finance</dc:title>
      </cc:Work>
    </rdf:RDF>
  </metadata>
  <sodipodi:namedview
     pagecolor="#ffffff"
     bordercolor="#666666"
     borderopacity="1"
     objecttolerance="10"
     gridtolerance="10"
     guidetolerance="10"
     inkscape:pageopacity="0"
     inkscape:pageshadow="2"
     inkscape:window-width="1920"
     inkscape:window-height="1051"
     id="namedview163"
     showgrid="false"
     inkscape:zoom="0.42920017"
     inkscape:cx="168.28624"
     inkscape:cy="274.92999"
     inkscape:window-x="1911"
     inkscape:window-y="-9"
     inkscape:window-maximized="1"
     inkscape:current-layer="02a143c3-6017-4373-a226-06a05c845178" />
  <defs
     id="defs10">
    <linearGradient
       id="6beaf3f8-3e45-4d0f-940e-4f825d2ab248"
       x1="569.10999"
       y1="596.37"
       x2="569.10999"
       y2="230.62"
       gradientUnits="userSpaceOnUse">
      <stop
         offset="0"
         stop-color="gray"
         stop-opacity="0.25"
         id="stop2" />
      <stop
         offset="0.54"
         stop-color="gray"
         stop-opacity="0.12"
         id="stop4" />
      <stop
         offset="1"
         stop-color="gray"
         stop-opacity="0.1"
         id="stop6" />
    </linearGradient>
    <linearGradient
       id="618658e0-5682-4211-900b-639feb09c488"
       x1="878.33002"
       y1="643.77002"
       x2="878.33002"
       y2="175.07001"
       xlink:href="#6beaf3f8-3e45-4d0f-940e-4f825d2ab248"
       gradientTransform="matrix(1.1525705,0,0,1.1525705,-132.44701,-66.723228)" />
    <linearGradient
       inkscape:collect="always"
       xlink:href="#6beaf3f8-3e45-4d0f-940e-4f825d2ab248"
       id="linearGradient972"
       gradientUnits="userSpaceOnUse"
       x1="569.10999"
       y1="596.37"
       x2="569.10999"
       y2="230.62"
       gradientTransform="matrix(1.1525705,0,0,1.1525705,-132.44701,-66.723228)" />
  </defs>
  <title
     id="title12">finance</title>
  <path
     d="m 282.17871,550.10947 c -66.48027,-22.97073 -142.4923,-42.41459 -204.604321,-9.40497 -7.872057,4.18383 -15.628857,9.45108 -19.870316,17.28856 -11.202986,20.61948 6.604229,47.35912 -2.074627,69.15423 -8.678856,21.79511 -41.342706,32.76758 -38.668742,56.0495 0.703068,6.08558 3.99942,11.59486 7.883583,16.34345 24.330764,29.7248 68.935243,32.73301 106.635823,25.35656 37.70058,-7.37646 74.57132,-22.67107 112.95191,-20.74627 36.88226,1.90174 70.81394,19.59369 104.60731,34.48491 56.97156,25.17214 123.50945,43.23292 180.43491,17.93399 26.08267,-11.59486 47.64727,-31.33839 72.61195,-45.12313 a 178.71759,178.71759 0 0 1 110.301,-20.23914 c 25.35655,3.57297 49.56053,12.56302 74.37537,18.76385 56.3607,14.07288 115.1879,13.61185 173.26593,13.05862 10.81111,-0.10373 21.79511,-0.23051 32.15672,-3.3194 15.34069,-4.61028 27.99599,-15.22546 40.17869,-25.61012 16.0092,-13.63491 32.8713,-28.61833 38.0348,-49.0073 6.0971,-24.20398 -6.5236,-49.92935 -25.2413,-66.37654 -18.7178,-16.44718 -42.6452,-25.43723 -65.99624,-34.10456 -5.76285,-2.12073 -11.91758,-4.27603 -17.81874,-2.67396 -3.87264,1.06036 -7.13441,3.64212 -10.02736,6.41982 -16.57397,15.95157 -30.5777,42.93325 -53.17961,38.59958 -8.06799,-1.54444 -14.67222,-7.15746 -21.05746,-12.34403 -34.09304,-27.66169 -79.95382,-49.01882 -121.10059,-33.73574 -30.09361,11.17994 -51.33549,39.89047 -81.8325,50.02156 -21.69138,7.2151 -45.26145,4.09163 -68.08235,5.49777 -33.19403,2.02852 -65.50058,13.76169 -98.74071,13.04709 -84.76004,-1.82106 -155.37804,-82.86982 -239.7923,-75.14759 -6.61576,0.59933 -13.83085,2.12073 -17.8879,7.3534"
     id="path14"
     inkscape:connector-curvature="0"
     style="opacity:0.5;fill:#4098d7;stroke-width:1.15257049" />
  <path
     d="m 175.28932,473.01403 c 0,0 -70.43359,42.51833 59.44959,108.00739 0,0 28.61832,-53.13351 -3.01974,-96.45863 a 42.64511,42.64511 0 0 0 -55.32338,-12.12504 z"
     id="path16"
     inkscape:connector-curvature="0"
     style="fill:#4098d7;stroke-width:1.15257049" />
  <path
     d="m 176.13069,472.12655 c 0,0 60.30249,46.10282 58.61974,108.86029"
     stroke-miterlimit="10"
     id="path18"
     inkscape:connector-curvature="0"
     style="fill:none;stroke:#535461;stroke-width:1.15257049;stroke-miterlimit:10" />
  <path
     d="m 1066.3993,437.59554 c 14.2688,52.17687 -46.5985,200.82389 -46.5985,200.82389 0,0 -128.07364,-96.96576 -142.35399,-149.14263 a 97.968495,97.968495 0 1 1 188.94089,-51.69279 z"
     id="path20"
     inkscape:connector-curvature="0"
     style="fill:#4098d7;stroke-width:1.15257049" />
  <path
     d="m 1066.3993,437.59554 c 14.2688,52.17687 -46.5985,200.82389 -46.5985,200.82389 0,0 -128.07364,-96.96576 -142.35399,-149.14263 a 97.968495,97.968495 0 1 1 188.94089,-51.69279 z"
     id="path22"
     inkscape:connector-curvature="0"
     style="opacity:0.1;stroke-width:1.15257049" />
  <path
     d="m 946.60104,369.25963 c 0,0 79.72336,120.35142 73.76456,269.44794"
     stroke-miterlimit="10"
     id="path24"
     inkscape:connector-curvature="0"
     style="fill:none;stroke:#535461;stroke-width:1.15257049;stroke-miterlimit:10" />
  <path
     d="m 1086.7421,532.95922 c 0,0 -72.2892,-39.3257 -63.1378,105.84056 0,0 60.3025,-2.15531 81.7057,-51.34702 a 42.64511,42.64511 0 0 0 -17.5075,-53.88267 z"
     id="path26"
     inkscape:connector-curvature="0"
     style="fill:#4098d7;stroke-width:1.15257049" />
  <path
     d="m 1087.9293,533.21279 c 0,0 -9.3358,75.35506 -64.325,105.58699"
     stroke-miterlimit="10"
     id="path28"
     inkscape:connector-curvature="0"
     style="fill:none;stroke:#535461;stroke-width:1.15257049;stroke-miterlimit:10" />
  <path
     d="m 28.40573,516.77713 c 0,0 -70.468163,42.50681 59.426536,107.96129 0,0 28.618324,-53.13351 -3.019734,-96.45863 A 42.64511,42.64511 0 0 0 29.489146,516.15475 Z"
     id="path30"
     inkscape:connector-curvature="0"
     style="fill:#4098d7;stroke-width:1.15257049" />
  <path
     d="m 29.212529,515.88965 c 0,0 60.30249,46.10283 58.619737,108.86029"
     stroke-miterlimit="10"
     id="path32"
     inkscape:connector-curvature="0"
     style="fill:none;stroke:#535461;stroke-width:1.15257049;stroke-miterlimit:10" />
  <path
     d="m 907.66721,572.11205 h -74.05266 a 24.688061,24.688061 0 0 0 2.58176,-11.0301 V 223.88591 a 24.791792,24.791792 0 0 0 -24.79179,-24.79179 h -573.2079 a 24.791792,24.791792 0 0 0 -24.79179,24.79179 v 337.20756 a 24.688061,24.688061 0 0 0 2.58175,11.0301 h -76.66899 a 6.5581263,6.5581263 0 0 0 -6.55813,6.5927 v 5.2903 a 36.674794,36.674794 0 0 0 36.6748,36.6748 h 708.11628 a 36.674794,36.674794 0 0 0 36.6748,-36.6748 v -5.2903 a 6.5581263,6.5581263 0 0 0 -6.55813,-6.60422 z m -456.29115,20.97678 -6.38524,-7.20357 h 157.6486 l -7.03068,7.21509 z"
     id="path34"
     inkscape:connector-curvature="0"
     style="fill:url(#linearGradient972);stroke-width:1.15257049" />
  <rect
     x="220.42398"
     y="203.86577"
     width="608.69556"
     height="378.03159"
     rx="26.80879"
     ry="26.80879"
     id="rect36"
     style="fill:#535461;stroke-width:1.15257049" />
  <rect
     x="233.24055"
     y="258.97018"
     width="581.78302"
     height="308.8313"
     id="rect38"
     style="fill:#ffffff;stroke-width:1.15257049" />
  <circle
     cx="524.13782"
     cy="232.05763"
     r="5.1289387"
     id="circle40"
     style="fill:#ffffff;stroke-width:1.15257049" />
  <path
     d="m 613.95766,568.43535 -19.98557,20.50422 H 453.05882 L 434.99804,568.43535 H 148.0195 a 6.4082922,6.4082922 0 0 0 -6.40829,6.40829 v 5.16351 a 35.844944,35.844944 0 0 0 35.84494,35.84495 h 692.0725 a 35.844944,35.844944 0 0 0 35.84495,-35.84495 v -5.16351 a 6.4082922,6.4082922 0 0 0 -6.4083,-6.40829 z"
     id="path42"
     inkscape:connector-curvature="0"
     style="fill:#535461;stroke-width:1.15257049" />
  <polyline
     points="258.77 124.19 258.77 352.11 635.67 352.11"
     stroke-miterlimit="10"
     id="polyline44"
     style="fill:none;stroke:#535461;stroke-width:2;stroke-miterlimit:10"
     transform="matrix(1.1525705,0,0,1.1525705,9.3191615,135.0573)" />
  <rect
     x="346.00806"
     y="461.44226"
     width="44.846519"
     height="69.200333"
     id="rect46"
     style="opacity:0.5;fill:#4098d7;stroke-width:1.15257049" />
  <rect
     x="422.89603"
     y="399.92957"
     width="44.846519"
     height="130.71303"
     id="rect48"
     style="opacity:0.7;fill:#4098d7;stroke-width:1.15257049" />
  <rect
     x="499.78406"
     y="437.08844"
     width="44.846519"
     height="93.542625"
     id="rect50"
     style="opacity:0.5;fill:#4098d7;stroke-width:1.15257049" />
  <rect
     x="576.672"
     y="379.42535"
     width="44.846519"
     height="151.21725"
     id="rect52"
     style="opacity:0.8;fill:#4098d7;stroke-width:1.15257049" />
  <rect
     x="653.56"
     y="325.60028"
     width="44.846519"
     height="205.03078"
     id="rect54"
     style="fill:#4098d7;stroke-width:1.15257049" />
  <polyline
     points="311.02 246.49 378.84 185.34 445.55 243.15 511.15 173.11 577.86 145.31"
     stroke-miterlimit="10"
     id="polyline56"
     style="fill:none;stroke:#535461;stroke-width:2;stroke-miterlimit:10"
     transform="matrix(1.1525705,0,0,1.1525705,9.3191615,135.0573)" />
  <circle
     cx="367.79166"
     cy="419.15442"
     r="8.9669991"
     id="circle58"
     style="fill:#4098d7;stroke-width:1.15257049" />
  <circle
     cx="521.56757"
     cy="414.02545"
     r="8.9669991"
     id="circle60"
     style="fill:#4098d7;stroke-width:1.15257049" />
  <circle
     cx="599.73492"
     cy="334.5788"
     r="8.9669991"
     id="circle62"
     style="fill:#4098d7;stroke-width:1.15257049" />
  <circle
     cx="445.95898"
     cy="347.38385"
     r="8.9669991"
     id="circle64"
     style="fill:#4098d7;stroke-width:1.15257049" />
  <circle
     cx="675.34351"
     cy="302.53735"
     r="8.9669991"
     id="circle66"
     style="fill:#4098d7;stroke-width:1.15257049" />
  <path
     d="m 1008.9551,579.66138 c -4.7255,-1.55597 -11.73316,-3.35398 -17.28855,-2.72006 -5.2903,-1.9248 -17.72653,-6.91543 -26.22098,-14.43019 a 189.10225,189.10225 0 0 0 -0.56476,-22.1524 c -4.34519,-49.4107 5.42861,-81.98235 5.42861,-81.98235 0,0 7.67612,-24.84942 6.83474,-45.4689 0.49561,0.93358 0.77223,1.48681 0.77223,1.48681 0.66849,-17.78416 6.73101,-36.19071 11.27214,-47.65879 a 3.8265342,3.8265342 0 0 0 0.50713,-0.18441 l 5.07131,-12.03284 a 10.442289,10.442289 0 0 0 0.95663,-2.22446 l 0.81833,-1.90174 -0.24204,-0.10373 c 0.0807,-0.31119 0.16136,-0.64544 0.24204,-0.97968 v 0 c 3.23872,-13.70407 5.76287,-46.20656 5.76287,-46.20656 8.6904,-34.20829 -11.94065,-55.32338 -11.94065,-55.32338 l -35.0151,-30.1282 a 4.4373966,4.4373966 0 0 1 0.34578,1.23325 l -0.28815,-0.25356 c -0.4956,-1.41766 -1.03731,-3.11194 -1.56749,-5.04826 a 26.624379,26.624379 0 0 0 3.45771,-2.96211 26.889471,26.889471 0 0 0 7.849,-14.00373 53.098924,53.098924 0 0 0 0.51866,-12.67827 l -0.57628,-14.53392 a 46.102821,46.102821 0 0 0 -0.86443,-8.47139 c -2.63939,-11.52571 -14.45324,-19.5937 -26.31319,-20.12388 a 96.182011,96.182011 0 0 0 -11.29519,0.59933 75.988975,75.988975 0 0 1 -9.22056,0.19594 1.6597016,1.6597016 0 0 1 -0.99121,-0.26509 1.4522389,1.4522389 0 0 1 -0.42645,-1.00274 5.0021561,5.0021561 0 0 1 1.22172,-3.74585 4.6102821,4.6102821 0 0 1 1.59055,-0.91053 l -0.84138,0.19593 a 4.6102821,4.6102821 0 0 1 1.38309,-0.74917 26.843368,26.843368 0 0 0 -8.73649,3.16957 11.283666,11.283666 0 0 0 -2.04005,1.71733 8.9093702,8.9093702 0 0 0 -2.95058,5.48624 10.211775,10.211775 0 0 1 -3.11194,-4.61028 4.6102821,4.6102821 0 0 1 0,-2.23599 q -0.31119,0.38035 -0.59934,0.78375 c 0,-0.0807 0,-0.16136 0,-0.24204 a 23.304976,23.304976 0 0 0 -4.61028,9.38192 3.6536486,3.6536486 0 0 1 -0.82985,-2.69701 c -0.17289,0.5417 -0.33425,1.08341 -0.48408,1.62512 a 3.7573799,3.7573799 0 0 1 0,-1.08342 37.124297,37.124297 0 0 0 -1.80954,12.88574 c 0,4.35672 1.93632,11.14536 6.60423,12.67828 0.24204,0.0807 0.48408,0.13831 0.73765,0.19594 a 29.309869,29.309869 0 0 0 19.76658,44.76584 q 0.11526,0.79527 0.21899,1.67122 h 0.18441 c 0.12679,1.15257 0.23052,2.4204 0.29967,3.71128 a 24.976203,24.976203 0 0 1 -3.84958,3.08889 31.741792,31.741792 0 0 1 -12.81659,4.24146 38.150085,38.150085 0 0 0 -15.40987,4.61028 c -5.58996,3.12347 -11.75622,7.67612 -13.69253,13.20846 -3.2272,9.22056 -20.99984,23.57007 -32.91742,25.35655 l -4.24146,-0.24204 -0.31119,-0.0922 v 0.0807 l -1.03732,-0.0576 h -0.0576 -0.27662 v 0.0576 l -1.07189,-0.0576 c 0,0 -0.10373,0.4956 -0.25357,1.37156 -5.99336,-2.06311 -18.72927,-7.77986 -35.30323,-22.8209 -18.44113,-16.74685 -43.39428,-13.4505 -53.01825,-11.3413 a 1.6481759,1.6481759 0 0 0 -0.43797,3.05432 c 3.88416,2.13225 9.90058,5.23267 12.67827,5.57844 0,0 -5.76285,6.02794 0.36882,9.22056 a 4.4489223,4.4489223 0 0 0 4.61029,-0.4495 c 2.97363,-2.17836 11.23756,2.75464 23.21277,5.32488 0,0 33.79337,34.96899 50.57479,40.33996 a 24.123301,24.123301 0 0 0 1.27936,2.22447 l 1.03731,-0.0807 v 0.0807 h 0.43798 l 0.12678,1.15257 c 0,0 26.0942,-1.37156 34.57711,-10.84569 a 13.588807,13.588807 0 0 0 1.64818,-1.76344 l -9.07073,114.10449 h 0.0807 l -0.0807,1.08341 h 6.67338 A 251.54852,251.54852 0 0 1 873.6203,450.781 v 74.3869 c 0,0 -0.34577,6.5466 13.25456,16.13598 a 508.35276,508.35276 0 0 1 41.16982,31.91468 l 1.64817,1.42919 c -2.50107,22.76327 -7.73374,65.18939 -12.10199,66.76841 l 2.69702,0.47256 c -4.61028,5.84353 -17.70348,21.89884 -21.69138,22.32529 -4.8869,0.5417 -8.14867,8.14867 0,9.77379 a 91.295112,91.295112 0 0 0 48.40796,-4.77164 7.3879771,7.3879771 0 0 0 4.61029,-7.86053 l -1.57903,-11.98673 a 1.682753,1.682753 0 0 1 0.69155,0.72612 c 1.08341,3.26177 0,-4.34519 0,-4.34519 a 339.69711,339.69711 0 0 0 10.49991,-43.79768 l 16.13599,13.9461 c 0,0 0.32272,-0.4034 0.88748,-1.15257 3.95332,8.967 11.00705,27.31592 9.42803,40.75489 -2.16683,18.44113 18.44112,2.16684 16.28582,-8.69038 -1.7519,-8.78259 6.0856,-46.01061 9.1399,-59.93367 a 6.1893038,6.1893038 0 0 0 -4.1493,-7.21509 z"
     id="path68"
     inkscape:connector-curvature="0"
     style="fill:url(#618658e0-5682-4211-900b-639feb09c488);stroke-width:1.15257049" />
  <path
     d="m 840.32252,278.46012 c 0,0 -15.3753,-2.65091 -38.17314,-23.32802 -18.03773,-16.35498 -42.36849,-13.13931 -51.75042,-11.07621 a 1.602073,1.602073 0 0 0 -0.42645,2.97364 c 3.79196,2.07462 9.67007,5.10588 12.42471,5.45165 0,0 -5.68217,5.87811 0.3573,9.02463 a 4.3451909,4.3451909 0 0 0 4.54113,-0.43797 c 2.90447,-2.12073 10.97247,2.69701 22.67106,5.19809 0,0 45.59569,47.18624 56.19934,39.1874 z"
     id="path70"
     inkscape:connector-curvature="0"
     style="fill:#fec3be;stroke-width:1.15257049" />
  <path
     d="m 918.82409,214.30805 c 0,0 4.24146,18.0262 0,30.75058 l 19.08657,2.65091 16.96584,-8.48292 v -11.13383 c 0,0 -7.95274,-16.96584 -5.83201,-36.58259 z"
     id="path72"
     inkscape:connector-curvature="0"
     style="fill:#fec3be;stroke-width:1.15257049" />
  <path
     d="m 972.86813,605.02946 c 0,0 13.83084,27.0393 11.66401,45.06551 -2.16683,18.0262 18.02616,2.12073 15.90546,-8.48292 -1.71732,-8.57513 5.9358,-44.95025 8.9209,-58.48143 a 6.0394696,6.0394696 0 0 0 -4.0109,-7.04221 c -6.37375,-2.09767 -17.04655,-4.66791 -22.40601,-0.73764 -7.91816,5.82048 -10.07346,29.67869 -10.07346,29.67869 z"
     id="path74"
     inkscape:connector-curvature="0"
     style="fill:#8b416f;stroke-width:1.15257049" />
  <path
     d="m 920.41464,634.71968 c 0,0 -18.0262,23.32802 -22.79784,23.85821 -4.77165,0.53018 -7.95274,7.95273 0,9.54328 a 89.139805,89.139805 0 0 0 47.25539,-4.61028 7.2150915,7.2150915 0 0 0 4.5296,-7.67612 L 946.359,633.12913 Z"
     id="path76"
     inkscape:connector-curvature="0"
     style="fill:#8b416f;stroke-width:1.15257049" />
  <path
     d="m 890.72442,387.136 -17.28855,2.30514 a 253.02381,253.02381 0 0 1 -0.20747,60.77505 v 72.61194 c 0,0 -0.33424,6.39677 12.94337,15.69801 a 496.37755,496.37755 0 0 1 40.20166,31.1194 l 48.1083,41.67695 c 0,0 19.08656,-23.32802 16.43565,-37.11277 0,0 -31.81095,-10.07346 -36.05241,-26.50912 -2.43192,-9.40497 -14.76442,-17.28856 -24.86094,-22.24461 a 30.911942,30.911942 0 0 1 -16.53939,-35.08425 27.05083,27.05083 0 0 1 2.70854,-6.81169 c 8.48292,-14.84511 20.67712,-48.2466 20.67712,-48.2466 l -23.32803,-44.46617 z"
     id="path78"
     inkscape:connector-curvature="0"
     style="fill:#4d4981;stroke-width:1.15257049" />
  <path
     d="m 890.72442,387.136 -17.28855,2.30514 a 253.02381,253.02381 0 0 1 -0.20747,60.77505 v 72.61194 c 0,0 -0.33424,6.39677 12.94337,15.69801 a 496.37755,496.37755 0 0 1 40.20166,31.1194 l 48.1083,41.67695 c 0,0 19.08656,-23.32802 16.43565,-37.11277 0,0 -31.81095,-10.07346 -36.05241,-26.50912 -2.43192,-9.40497 -14.76442,-17.28856 -24.86094,-22.24461 a 30.911942,30.911942 0 0 1 -16.53939,-35.08425 27.05083,27.05083 0 0 1 2.70854,-6.81169 c 8.48292,-14.84511 20.67712,-48.2466 20.67712,-48.2466 l -23.32803,-44.46617 z"
     id="path80"
     inkscape:connector-curvature="0"
     style="opacity:0.05;stroke-width:1.15257049" />
  <path
     d="m 916.17318,636.3448 c 0,0 31.28077,5.30183 32.34113,8.48292 1.06037,3.18109 0,-4.24146 0,-4.24146 0,0 18.0262,-54.60879 13.83085,-102.84387 -4.19536,-48.23507 5.30182,-80.05755 5.30182,-80.05755 0,0 11.13383,-36.0524 4.77164,-56.72952 -6.36219,-20.67711 -73.16517,-11.66401 -73.16517,-11.66401 0,0 23.32802,54.60879 22.79784,80.58773 0,0 2.65091,78.467 7.42256,87.4801 -0.0461,-0.0461 -7.46866,76.83035 -13.30067,78.98566 z"
     id="path82"
     inkscape:connector-curvature="0"
     style="fill:#4d4981;stroke-width:1.15257049" />
  <path
     d="m 919.84988,228.09279 c 0,0 3.1811,19.5937 34.99204,11.13383 l -21.16119,161.16394 c 0,0 -61.50117,2.12073 -60.97098,-5.30182 l 12.67827,-97.54205 z"
     id="path84"
     inkscape:connector-curvature="0"
     style="fill:#ffffff;stroke-width:1.15257049" />
  <path
     d="m 920.67973,227.03243 a 25.840631,25.840631 0 0 1 -15.31766,7.27272 37.262605,37.262605 0 0 0 -15.05257,4.47197 c -5.45166,3.05431 -11.52571,7.49171 -13.36982,12.89727 -3.71128,10.60364 -27.0393,28.09967 -37.64295,24.38839 l 3.71127,31.81094 c 0,0 30.2204,-1.59054 35.52223,-13.25456 l -9.00158,113.51668 h 7.95274 c 0,0 4.24146,-30.75059 7.42255,-37.11278 3.1811,-6.36219 9.54329,-41.35423 10.07347,-49.83715 0.53018,-8.48291 8.48292,-57.2597 15.37529,-65.69652 l 10.37314,-25.18366 z"
     id="path86"
     inkscape:connector-curvature="0"
     style="opacity:0.1;stroke-width:1.15257049" />
  <path
     d="m 920.67973,228.62297 a 32.813683,32.813683 0 0 1 -16.37802,6.74254 37.262605,37.262605 0 0 0 -15.04105,4.49503 c -5.45166,3.05431 -11.52571,7.49171 -13.36982,12.89726 -3.71128,10.60365 -27.0393,28.09967 -37.64295,24.38839 l 3.71128,31.81095 c 0,0 30.22039,-1.59055 35.52222,-13.25456 l -9.0131,113.44752 h 7.95273 c 0,0 4.24146,-30.75058 7.42256,-37.11277 3.18109,-6.36219 9.54328,-41.35423 10.07347,-49.83715 0.53018,-8.48292 8.48291,-57.25971 15.37529,-65.69652 l 11.38739,-24.71112 z"
     id="path88"
     inkscape:connector-curvature="0"
     style="opacity:0.1;stroke-width:1.15257049" />
  <path
     d="m 920.67973,227.56261 a 32.813683,32.813683 0 0 1 -16.37802,6.74254 37.262605,37.262605 0 0 0 -15.05258,4.47197 c -5.45165,3.05431 -11.5257,7.49171 -13.36981,12.89727 -3.71128,10.60364 -27.03931,28.09967 -37.64296,24.38839 l 3.71128,31.81094 c 0,0 30.2204,-1.59054 35.52222,-13.25456 l -9.00157,113.51668 h 7.95273 c 0,0 4.24146,-30.75059 7.42256,-37.11278 3.18109,-6.36219 9.54328,-41.35423 10.07347,-49.83715 0.53018,-8.48291 8.48291,-57.2597 15.37529,-65.69652 l 11.39892,-24.65348 z"
     id="path90"
     inkscape:connector-curvature="0"
     style="fill:#fd6f8d;stroke-width:1.15257049" />
  <path
     d="m 947.71904,207.15059 c -0.69154,-5.02521 0.69154,-8.1602 1.32545,-14.04984 l -30.2204,22.79785 c 0,0 0.72612,3.07736 1.27936,7.58391 a 28.814263,28.814263 0 0 0 4.61028,0.36882 c 10.48839,0 18.03773,-8.19477 23.00531,-16.70074 z"
     id="path92"
     inkscape:connector-curvature="0"
     style="opacity:0.1;stroke-width:1.15257049" />
  <circle
     cx="924.65607"
     cy="193.64247"
     r="28.629852"
     id="circle94"
     style="fill:#fec3be;stroke-width:1.15257049" />
  <path
     d="m 893.40991,165.57737 a 36.236818,36.236818 0 0 1 2.30515,-14.1651 3.5383915,3.5383915 0 0 0 0.59933,4.61029 22.682588,22.682588 0 0 1 7.19204,-12.74743 c -2.04005,0.33424 -3.08889,2.85837 -2.58176,4.86384 a 11.064677,11.064677 0 0 0 3.5384,4.97911 c -0.17289,-3.03126 1.83258,-5.86658 4.36824,-7.52629 a 26.209454,26.209454 0 0 1 8.52902,-3.08889 4.9445276,4.9445276 0 0 0 -3.2733,5.07131 1.4176618,1.4176618 0 0 0 0.42645,0.97969 1.6251245,1.6251245 0 0 0 0.96816,0.25357 74.202491,74.202491 0 0 0 8.95547,-0.19594 93.922973,93.922973 0 0 1 11.0301,-0.58781 c 11.52571,0.48408 23.10904,8.35613 25.6908,19.5937 a 45.053982,45.053982 0 0 1 0.84138,8.27545 l 0.56476,14.18815 a 51.865674,51.865674 0 0 1 -0.50713,12.40166 26.278608,26.278608 0 0 1 -13.49661,17.84179 c -4.16078,-6.02795 -4.5296,-13.77322 -5.97031,-20.95374 a 10.603649,10.603649 0 0 0 -1.79801,-4.61028 4.0455226,4.0455226 0 0 0 -4.4374,-1.49834 c -1.55597,0.62239 -2.22446,2.99668 -0.93358,4.05705 -1.15257,1.36003 -3.30788,0.34577 -4.61028,-0.86443 a 24.757215,24.757215 0 0 1 -7.18052,-12.82811 c -0.51865,-2.4665 -1.03731,-5.50929 -3.45771,-6.35066 a 6.4313436,6.4313436 0 0 0 -2.5587,-0.17289 c -5.04826,0.34577 -12.94337,2.43193 -17.83027,0.82985 -4.4835,-1.46376 -6.37372,-8.10257 -6.37372,-12.35555 z"
     id="path96"
     inkscape:connector-curvature="0"
     style="opacity:0.1;stroke-width:1.15257049" />
  <path
     d="m 893.9401,165.04718 a 36.236818,36.236818 0 0 1 2.30514,-14.16509 3.5383915,3.5383915 0 0 0 0.59933,4.61028 22.682588,22.682588 0 0 1 7.19204,-12.74743 c -2.04005,0.33425 -3.08888,2.85838 -2.58175,4.86385 a 11.064677,11.064677 0 0 0 3.53839,4.97911 c -0.17289,-3.03126 1.83259,-5.86659 4.36824,-7.52629 a 26.209454,26.209454 0 0 1 8.52902,-3.08889 4.9445276,4.9445276 0 0 0 -3.2733,5.07131 1.4176618,1.4176618 0 0 0 0.42645,0.97969 1.6251245,1.6251245 0 0 0 0.96816,0.25356 74.202491,74.202491 0 0 0 8.95548,-0.19593 93.922973,93.922973 0 0 1 11.0301,-0.58782 c 11.5257,0.48408 23.10903,8.35614 25.69079,19.5937 a 45.053982,45.053982 0 0 1 0.84138,8.27546 l 0.56476,14.18814 a 51.865674,51.865674 0 0 1 -0.50713,12.40166 26.278608,26.278608 0 0 1 -13.4966,17.84179 c -4.16078,-6.02794 -4.52961,-13.77321 -5.97032,-20.95373 a 10.603649,10.603649 0 0 0 -1.79801,-4.61028 4.0455226,4.0455226 0 0 0 -4.4374,-1.49834 c -1.55597,0.62239 -2.22446,2.99668 -0.93358,4.05705 -1.15257,1.36003 -3.30787,0.34577 -4.61028,-0.86443 a 24.757215,24.757215 0 0 1 -7.18051,-12.82811 c -0.51866,-2.4665 -1.03732,-5.50929 -3.45772,-6.35066 a 6.4313436,6.4313436 0 0 0 -2.5587,-0.17289 c -5.04826,0.34577 -12.94337,2.43192 -17.83027,0.82985 -4.4835,-1.47529 -6.37371,-8.10257 -6.37371,-12.35556 z"
     id="path98"
     inkscape:connector-curvature="0"
     style="fill:#784f69;stroke-width:1.15257049" />
  <path
     d="m 836.8648,276.0743 c 0,0 -4.24146,19.5937 3.71128,31.81095 l 4.50655,-0.36882 -2.45497,-31.11941 z"
     id="path100"
     inkscape:connector-curvature="0"
     style="opacity:0.1;stroke-width:1.15257049" />
  <path
     d="m 838.01737,276.0743 c 0,0 -4.24146,19.5937 3.71128,31.81095 l 4.50655,-0.36882 -2.45497,-31.11941 z"
     id="path102"
     inkscape:connector-curvature="0"
     style="fill:#fd6f8d;stroke-width:1.15257049" />
  <path
     d="m 951.9605,222.57198 34.19676,29.42513 c 0,0 20.14694,20.67711 11.66402,54.0786 0,0 -3.71128,48.77679 -7.95274,50.89752 0,0 -14.84511,29.69022 -15.90547,57.78989 0,0 -19.88184,-40.02878 -28.89494,-15.64039 -9.01311,24.3884 -29.96684,27.83458 -29.96684,27.83458 l 11.66402,-144.25573 c 0,0 29.43665,-51.1626 25.19519,-60.1296 z"
     id="path104"
     inkscape:connector-curvature="0"
     style="opacity:0.1;stroke-width:1.15257049" />
  <path
     d="m 953.02086,222.57198 34.19677,29.42513 c 0,0 20.14697,20.67711 11.66401,54.0786 0,0 -3.71127,48.77679 -7.95273,50.89752 0,0 -14.84511,29.69022 -15.90548,57.78989 0,0 -20.9422,-42.14951 -29.96683,-17.76112 -9.02463,24.3884 -28.89494,29.96684 -28.89494,29.96684 l 11.66401,-144.1981 c 0,0 29.43665,-51.23176 25.19519,-60.19876 z"
     id="path106"
     inkscape:connector-curvature="0"
     style="fill:#fd6f8d;stroke-width:1.15257049" />
  <path
     d="m 968.66124,346.85366 c 0,0 8.48292,-5.83201 22.26767,10.07347 l -33.93168,61.50116 -11.39892,-17.20788 c 0,0 24.1233,-47.47438 23.06293,-54.36675 z"
     id="path108"
     inkscape:connector-curvature="0"
     style="fill:#fec3be;stroke-width:1.15257049" />
  <path
     d="m 960.44342,350.29985 c 0,0 18.76384,21.06899 26.08267,17.69195 l 6.77711,-15.77869 -25.43723,-10.92637 z"
     id="path110"
     inkscape:connector-curvature="0"
     style="opacity:0.1;stroke-width:1.15257049" />
  <path
     d="m 960.44342,349.23948 c 0,0 18.76384,21.06899 26.08267,17.69196 l 6.77711,-15.77869 -25.43723,-10.92637 z"
     id="path112"
     inkscape:connector-curvature="0"
     style="fill:#fd6f8d;stroke-width:1.15257049" />
  <path
     d="m 946.75088,397.19794 c 0,0 8.93242,18.30282 13.69254,19.36319 l -6.91543,7.95273 -10.07346,-19.08657 z"
     id="path114"
     inkscape:connector-curvature="0"
     style="opacity:0.1;stroke-width:1.15257049" />
  <path
     d="m 946.2207,397.7627 c 0,0 8.93242,18.30282 13.69253,19.36319 l -6.91542,7.95273 -10.09652,-19.12114 z"
     id="path116"
     inkscape:connector-curvature="0"
     style="fill:#4d4981;stroke-width:1.15257049" />
  <path
     d="m 963.09433,284.55722 c 0,0 1.06036,38.17314 -3.1811,52.48806"
     id="path118"
     inkscape:connector-curvature="0"
     style="opacity:0.1;stroke-width:1.15257049" />
  <path
     d="m 877.20477,291.97978 c 0,0 6.36219,-2.12073 6.36219,-7.42256"
     id="path120"
     inkscape:connector-curvature="0"
     style="opacity:0.1;stroke-width:1.15257049" />
  <path
     d="m 104.62522,298.36502 c 0,0 -30.2204,62.51542 -10.373136,136.49893 19.847266,73.9835 13.542706,162.51244 -6.246932,184.41128"
     stroke-miterlimit="10"
     id="path122"
     inkscape:connector-curvature="0"
     style="fill:none;stroke:#535461;stroke-width:2.30514097;stroke-miterlimit:10" />
  <circle
     cx="104.62522"
     cy="298.37659"
     r="8.3330851"
     id="circle124"
     style="fill:#4098d7;stroke-width:1.15257049" />
  <path
     d="m 92.0622,338.5782 c 0,0 31.32687,5.6476 39.65995,-5.76285"
     stroke-miterlimit="10"
     id="path126"
     inkscape:connector-curvature="0"
     style="fill:none;stroke:#535461;stroke-width:2.30514097;stroke-miterlimit:10" />
  <path
     d="m 89.088568,356.73119 c 0,0 -18.844528,-20.85 -17.807214,-33.35539"
     stroke-miterlimit="10"
     id="path128"
     inkscape:connector-curvature="0"
     style="fill:none;stroke:#535461;stroke-width:2.30514097;stroke-miterlimit:10" />
  <path
     d="m 87.486495,394.92738 c 0,0 17.138725,4.51807 32.779105,-28.81427"
     stroke-miterlimit="10"
     id="path130"
     inkscape:connector-curvature="0"
     style="fill:none;stroke:#535461;stroke-width:2.30514097;stroke-miterlimit:10" />
  <path
     d="m 92.0622,422.70433 c 0,0 -42.645109,-27.44271 -37.447016,-45.14619"
     stroke-miterlimit="10"
     id="path132"
     inkscape:connector-curvature="0"
     style="fill:none;stroke:#535461;stroke-width:2.30514097;stroke-miterlimit:10" />
  <path
     d="m 98.724058,454.11187 c 0,0 29.874632,-26.50912 26.751162,-52.59179"
     stroke-miterlimit="10"
     id="path134"
     inkscape:connector-curvature="0"
     style="fill:none;stroke:#535461;stroke-width:2.30514097;stroke-miterlimit:10" />
  <path
     d="m 101.97431,472.57605 c 0,0 -38.034831,-10.6267 -36.88226,-27.29287"
     stroke-miterlimit="10"
     id="path136"
     inkscape:connector-curvature="0"
     style="fill:none;stroke:#535461;stroke-width:2.30514097;stroke-miterlimit:10" />
  <path
     d="m 104.62522,494.57863 c 0,0 23.96194,-22.19851 27.08541,-35.72969"
     stroke-miterlimit="10"
     id="path138"
     inkscape:connector-curvature="0"
     style="fill:none;stroke:#535461;stroke-width:2.30514097;stroke-miterlimit:10" />
  <path
     d="m 106.29645,532.32531 c 0,0 -24.584333,-28.69901 -25.633172,-43.27902"
     stroke-miterlimit="10"
     id="path140"
     inkscape:connector-curvature="0"
     style="fill:none;stroke:#535461;stroke-width:2.30514097;stroke-miterlimit:10" />
  <path
     d="m 106.29645,556.07979 c 0,0 27.51185,-30.56617 29.58648,-45.14619"
     stroke-miterlimit="10"
     id="path142"
     inkscape:connector-curvature="0"
     style="fill:none;stroke:#535461;stroke-width:2.30514097;stroke-miterlimit:10" />
  <circle
     cx="71.281349"
     cy="325.46198"
     r="8.3330851"
     id="circle144"
     style="fill:#4098d7;stroke-width:1.15257049" />
  <circle
     cx="61.910957"
     cy="445.28326"
     r="8.3330851"
     id="circle146"
     style="fill:#4098d7;stroke-width:1.15257049" />
  <circle
     cx="54.615181"
     cy="377.5582"
     r="8.3330851"
     id="circle148"
     style="fill:#4098d7;stroke-width:1.15257049" />
  <circle
     cx="131.72215"
     cy="332.75775"
     r="8.3330851"
     id="circle150"
     style="fill:#4098d7;stroke-width:1.15257049" />
  <circle
     cx="131.72215"
     cy="460.91205"
     r="8.3330851"
     id="circle152"
     style="fill:#4098d7;stroke-width:1.15257049" />
  <circle
     cx="118.17945"
     cy="366.10162"
     r="8.3330851"
     id="circle154"
     style="fill:#4098d7;stroke-width:1.15257049" />
  <circle
     cx="134.84563"
     cy="516.14325"
     r="8.3330851"
     id="circle156"
     style="fill:#4098d7;stroke-width:1.15257049" />
  <circle
     cx="78.577126"
     cy="494.25598"
     r="8.3330851"
     id="circle158"
     style="fill:#4098d7;stroke-width:1.15257049" />
  <circle
     cx="126.51254"
     cy="401.52011"
     r="8.3330851"
     id="circle160"
     style="fill:#4098d7;stroke-width:1.15257049" />
</svg>
